<svg width="48" height="48" viewBox="0 0 48 48" fill="none" xmlns="http://www.w3.org/2000/svg">
<rect width="48" height="48" rx="10" fill="#563F2E"/>
<path d="M35.925 18.7149C35.9007 17.6263 35.7064 16.5492 35.35 15.5266C35.0322 14.6516 34.5375 13.8593 33.9 13.2043C33.281 12.5317 32.5245 12.0158 31.6875 11.6954C30.7158 11.3099 29.6886 11.1013 28.65 11.0787C27.325 11 26.9 11 23.5 11C20.1 11 19.675 11 18.35 11.0787C17.3114 11.1013 16.2842 11.3099 15.3125 11.6954C14.4771 12.019 13.7212 12.5345 13.1 13.2043C12.4593 13.854 11.9677 14.6481 11.6625 15.5266C11.2952 16.5465 11.0965 17.6248 11.075 18.7149C11 20.1057 11 20.5518 11 24.1206C11 27.6893 11 28.1354 11.075 29.5262C11.0965 30.6163 11.2952 31.6946 11.6625 32.7145C11.9677 33.593 12.4593 34.3871 13.1 35.0368C13.7212 35.7066 14.4771 36.2221 15.3125 36.5457C16.2842 36.9312 17.3114 37.1398 18.35 37.1624C19.675 37.2411 20.1 37.2411 23.5 37.2411C26.9 37.2411 27.325 37.2411 28.65 37.1624C29.6886 37.1398 30.7158 36.9312 31.6875 36.5457C32.5245 36.2253 33.281 35.7094 33.9 35.0368C34.5403 34.3842 35.0354 33.5912 35.35 32.7145C35.7064 31.6919 35.9007 30.6148 35.925 29.5262C35.925 28.1354 36 27.6893 36 24.1206C36 20.5518 36 20.1057 35.925 18.7149ZM33.675 29.3688C33.6659 30.2016 33.5222 31.0268 33.25 31.8092C33.0504 32.3802 32.7298 32.8961 32.3125 33.3181C31.9071 33.7517 31.4165 34.0875 30.875 34.3021C30.1296 34.5878 29.3435 34.7386 28.55 34.7482C27.3 34.8138 26.8375 34.8269 23.55 34.8269C20.2625 34.8269 19.8 34.8269 18.55 34.7482C17.7261 34.7644 16.9057 34.6312 16.125 34.3546C15.6072 34.129 15.1392 33.7941 14.75 33.3705C14.3351 32.949 14.0186 32.4327 13.825 31.8617C13.5198 31.0681 13.3506 30.2242 13.325 29.3688C13.325 28.0567 13.25 27.5713 13.25 24.1206C13.25 20.6698 13.25 20.1844 13.325 18.8723C13.3306 18.0209 13.4787 17.1771 13.7625 16.3794C13.9826 15.8256 14.3203 15.332 14.75 14.9362C15.1298 14.485 15.5991 14.1268 16.125 13.8865C16.8869 13.5979 17.69 13.4471 18.5 13.4404C19.75 13.4404 20.2125 13.3617 23.5 13.3617C26.7875 13.3617 27.25 13.3617 28.5 13.4404C29.2935 13.45 30.0796 13.6008 30.825 13.8865C31.393 14.1078 31.9029 14.4676 32.3125 14.9362C32.7221 15.3392 33.0422 15.8319 33.25 16.3794C33.5278 17.1784 33.6716 18.0218 33.675 18.8723C33.7375 20.1844 33.75 20.6698 33.75 24.1206C33.75 27.5713 33.7375 28.0567 33.675 29.3688Z" fill="white"/>
<path d="M27.1906 19.32H28L29 16.14C28.1239 16.0454 27.2437 15.9986 26.3629 16C23.7449 16 21.9548 17.66 21.9548 20.7V23.32H18V26.88H21.9548V36H25.4966V26.88H29L30 23.32H25.4966V21.05C25.4966 20 25.7661 19.32 27.1906 19.32Z" fill="white"/>
</svg>
