<svg width="70" height="70" viewBox="0 0 70 70" fill="none" xmlns="http://www.w3.org/2000/svg">
<circle cx="35" cy="35" r="34" fill="#563F2E" stroke="white" stroke-width="2"/>
<path d="M19 26L35 15L51 26" stroke="white" stroke-width="2" stroke-linecap="round"/>
<path d="M27.8516 36.7578L27.998 39.8633H27.627C27.5553 39.3164 27.4577 38.9258 27.334 38.6914C27.1322 38.3138 26.862 38.0371 26.5234 37.8613C26.1914 37.679 25.752 37.5879 25.2051 37.5879H23.3398V47.7051C23.3398 48.5189 23.4277 49.0267 23.6035 49.2285C23.8509 49.502 24.2318 49.6387 24.7461 49.6387H25.2051V50H19.5898V49.6387H20.0586C20.6185 49.6387 21.0156 49.4694 21.25 49.1309C21.3932 48.9225 21.4648 48.4473 21.4648 47.7051V37.5879H19.873C19.2546 37.5879 18.8151 37.6335 18.5547 37.7246C18.2161 37.8483 17.9264 38.0859 17.6855 38.4375C17.4447 38.7891 17.3014 39.2643 17.2559 39.8633H16.8848L17.041 36.7578H27.8516ZM35.4492 36.4551C37.168 36.4551 38.6556 37.1094 39.9121 38.418C41.1751 39.7201 41.8066 41.3477 41.8066 43.3008C41.8066 45.3125 41.1719 46.9824 39.9023 48.3105C38.6328 49.6387 37.0964 50.3027 35.293 50.3027C33.4701 50.3027 31.9368 49.6549 30.6934 48.3594C29.4564 47.0638 28.8379 45.3874 28.8379 43.3301C28.8379 41.2272 29.554 39.5117 30.9863 38.1836C32.2298 37.0312 33.7174 36.4551 35.4492 36.4551ZM35.2637 37.168C34.0788 37.168 33.1283 37.6074 32.4121 38.4863C31.5202 39.5801 31.0742 41.1816 31.0742 43.291C31.0742 45.4525 31.5365 47.1159 32.4609 48.2812C33.1706 49.1667 34.1081 49.6094 35.2734 49.6094C36.5169 49.6094 37.5423 49.1243 38.3496 48.1543C39.1634 47.1842 39.5703 45.6543 39.5703 43.5645C39.5703 41.2988 39.1243 39.6094 38.2324 38.4961C37.5163 37.6107 36.5267 37.168 35.2637 37.168ZM46.6895 43.7988V47.6562C46.6895 48.4896 46.7806 49.0072 46.9629 49.209C47.2103 49.4954 47.5846 49.6387 48.0859 49.6387H48.5938V50H42.9199V49.6387H43.418C43.9779 49.6387 44.3783 49.4564 44.6191 49.0918C44.7493 48.89 44.8145 48.4115 44.8145 47.6562V39.1016C44.8145 38.2682 44.7266 37.7507 44.5508 37.5488C44.2969 37.2624 43.9193 37.1191 43.418 37.1191H42.9199V36.7578H47.7734C48.9583 36.7578 49.8926 36.8815 50.5762 37.1289C51.2598 37.3698 51.8359 37.7799 52.3047 38.3594C52.7734 38.9388 53.0078 39.6257 53.0078 40.4199C53.0078 41.5007 52.6497 42.3796 51.9336 43.0566C51.224 43.7337 50.2181 44.0723 48.916 44.0723C48.597 44.0723 48.252 44.0495 47.8809 44.0039C47.5098 43.9583 47.1126 43.89 46.6895 43.7988ZM46.6895 43.2422C47.0345 43.3073 47.3405 43.3561 47.6074 43.3887C47.8743 43.4212 48.1022 43.4375 48.291 43.4375C48.9681 43.4375 49.5508 43.1771 50.0391 42.6562C50.5339 42.1289 50.7812 41.4486 50.7812 40.6152C50.7812 40.0423 50.6641 39.5117 50.4297 39.0234C50.1953 38.5286 49.8633 38.1608 49.4336 37.9199C49.0039 37.6725 48.5156 37.5488 47.9688 37.5488C47.6367 37.5488 47.2103 37.6107 46.6895 37.7344V43.2422Z" fill="white"/>
</svg>
