<svg width="48" height="48" viewBox="0 0 48 48" fill="none" xmlns="http://www.w3.org/2000/svg">
<rect width="48" height="48" rx="10" fill="#563F2E"/>
<path d="M30.175 15.325C29.8783 15.325 29.5883 15.413 29.3416 15.5778C29.095 15.7426 28.9027 15.9769 28.7892 16.251C28.6756 16.5251 28.6459 16.8267 28.7038 17.1176C28.7617 17.4086 28.9046 17.6759 29.1143 17.8857C29.3241 18.0954 29.5914 18.2383 29.8824 18.2962C30.1733 18.3541 30.4749 18.3244 30.749 18.2108C31.0231 18.0973 31.2574 17.905 31.4222 17.6584C31.587 17.4117 31.675 17.1217 31.675 16.825C31.675 16.4272 31.517 16.0456 31.2357 15.7643C30.9544 15.483 30.5728 15.325 30.175 15.325ZM35.925 18.35C35.9007 17.3129 35.7064 16.2868 35.35 15.3125C35.0322 14.4789 34.5375 13.7241 33.9 13.1C33.281 12.4593 32.5245 11.9677 31.6875 11.6625C30.7158 11.2952 29.6886 11.0965 28.65 11.075C27.325 11 26.9 11 23.5 11C20.1 11 19.675 11 18.35 11.075C17.3114 11.0965 16.2842 11.2952 15.3125 11.6625C14.4771 11.9708 13.7212 12.462 13.1 13.1C12.4593 13.719 11.9677 14.4755 11.6625 15.3125C11.2952 16.2842 11.0965 17.3114 11.075 18.35C11 19.675 11 20.1 11 23.5C11 26.9 11 27.325 11.075 28.65C11.0965 29.6886 11.2952 30.7158 11.6625 31.6875C11.9677 32.5245 12.4593 33.281 13.1 33.9C13.7212 34.538 14.4771 35.0292 15.3125 35.3375C16.2842 35.7048 17.3114 35.9035 18.35 35.925C19.675 36 20.1 36 23.5 36C26.9 36 27.325 36 28.65 35.925C29.6886 35.9035 30.7158 35.7048 31.6875 35.3375C32.5245 35.0323 33.281 34.5407 33.9 33.9C34.5403 33.2782 35.0354 32.5227 35.35 31.6875C35.7064 30.7132 35.9007 29.6871 35.925 28.65C35.925 27.325 36 26.9 36 23.5C36 20.1 36 19.675 35.925 18.35ZM33.675 28.5C33.6659 29.2935 33.5222 30.0796 33.25 30.825C33.0504 31.369 32.7298 31.8605 32.3125 32.2625C31.9071 32.6756 31.4165 32.9955 30.875 33.2C30.1296 33.4722 29.3435 33.6159 28.55 33.625C27.3 33.6875 26.8375 33.7 23.55 33.7C20.2625 33.7 19.8 33.7 18.55 33.625C17.7261 33.6404 16.9057 33.5136 16.125 33.25C15.6072 33.0351 15.1392 32.716 14.75 32.3125C14.3351 31.9109 14.0186 31.419 13.825 30.875C13.5198 30.1189 13.3506 29.3149 13.325 28.5C13.325 27.25 13.25 26.7875 13.25 23.5C13.25 20.2125 13.25 19.75 13.325 18.5C13.3306 17.6888 13.4787 16.8849 13.7625 16.125C13.9826 15.5974 14.3203 15.1271 14.75 14.75C15.1298 14.3202 15.5991 13.9789 16.125 13.75C16.8869 13.4751 17.69 13.3313 18.5 13.325C19.75 13.325 20.2125 13.25 23.5 13.25C26.7875 13.25 27.25 13.25 28.5 13.325C29.2935 13.3341 30.0796 13.4778 30.825 13.75C31.393 13.9608 31.9029 14.3036 32.3125 14.75C32.7221 15.134 33.0422 15.6034 33.25 16.125C33.5278 16.8862 33.6716 17.6897 33.675 18.5C33.7375 19.75 33.75 20.2125 33.75 23.5C33.75 26.7875 33.7375 27.25 33.675 28.5ZM23.5 17.0875C22.2323 17.09 20.9937 17.4682 19.9408 18.1743C18.8879 18.8804 18.068 19.8827 17.5845 21.0547C17.1011 22.2266 16.9759 23.5156 17.2247 24.7587C17.4736 26.0017 18.0853 27.1432 18.9826 28.0387C19.8799 28.9343 21.0225 29.5438 22.2661 29.7902C23.5096 30.0366 24.7983 29.9089 25.9693 29.4232C27.1403 28.9375 28.1411 28.1155 28.8452 27.0613C29.5492 26.007 29.925 24.7677 29.925 23.5C29.9267 22.6564 29.7615 21.8208 29.439 21.0412C29.1166 20.2616 28.6432 19.5535 28.0461 18.9576C27.449 18.3616 26.7399 17.8896 25.9597 17.5687C25.1796 17.2477 24.3436 17.0842 23.5 17.0875ZM23.5 27.6625C22.6767 27.6625 21.872 27.4184 21.1874 26.961C20.5029 26.5036 19.9694 25.8535 19.6544 25.0929C19.3393 24.3323 19.2569 23.4954 19.4175 22.6879C19.5781 21.8805 19.9745 21.1388 20.5567 20.5567C21.1388 19.9745 21.8805 19.5781 22.6879 19.4175C23.4954 19.2569 24.3323 19.3393 25.0929 19.6544C25.8535 19.9694 26.5036 20.5029 26.961 21.1874C27.4184 21.872 27.6625 22.6767 27.6625 23.5C27.6625 24.0466 27.5548 24.5879 27.3456 25.0929C27.1365 25.5979 26.8299 26.0568 26.4433 26.4433C26.0568 26.8299 25.5979 27.1365 25.0929 27.3456C24.5879 27.5548 24.0466 27.6625 23.5 27.6625Z" fill="white"/>
</svg>
